<mxfile host="app.diagrams.net" modified="2022-08-23T05:35:56.581Z" agent="5.0 (Windows NT 10.0; Win64; x64) AppleWebKit/537.36 (KHTML, like Gecko) Chrome/104.0.0.0 Safari/537.36" etag="GYUq79FBKE7o962JmVIU" version="20.2.6" type="github">
  <diagram id="3LXRDVrzEN2xiRLzZ95g" name="Halaman-1">
    <mxGraphModel dx="1422" dy="737" grid="1" gridSize="10" guides="1" tooltips="1" connect="1" arrows="1" fold="1" page="1" pageScale="1" pageWidth="827" pageHeight="1169" math="0" shadow="0">
      <root>
        <mxCell id="0" />
        <mxCell id="1" parent="0" />
        <mxCell id="gRRdF8cXo2-2MMEj2vcQ-3" style="edgeStyle=orthogonalEdgeStyle;rounded=0;orthogonalLoop=1;jettySize=auto;html=1;exitX=0.5;exitY=1;exitDx=0;exitDy=0;entryX=0.5;entryY=0;entryDx=0;entryDy=0;" edge="1" parent="1" source="gRRdF8cXo2-2MMEj2vcQ-1" target="gRRdF8cXo2-2MMEj2vcQ-2">
          <mxGeometry relative="1" as="geometry" />
        </mxCell>
        <mxCell id="gRRdF8cXo2-2MMEj2vcQ-1" value="Direktur" style="rounded=0;whiteSpace=wrap;html=1;fillColor=#1ba1e2;strokeColor=#006EAF;fontColor=#ffffff;" vertex="1" parent="1">
          <mxGeometry x="360" y="40" width="120" height="60" as="geometry" />
        </mxCell>
        <mxCell id="gRRdF8cXo2-2MMEj2vcQ-5" style="edgeStyle=orthogonalEdgeStyle;rounded=0;orthogonalLoop=1;jettySize=auto;html=1;exitX=0.5;exitY=1;exitDx=0;exitDy=0;" edge="1" parent="1" source="gRRdF8cXo2-2MMEj2vcQ-2" target="gRRdF8cXo2-2MMEj2vcQ-4">
          <mxGeometry relative="1" as="geometry" />
        </mxCell>
        <mxCell id="gRRdF8cXo2-2MMEj2vcQ-2" value="Wakil Direktur" style="rounded=0;whiteSpace=wrap;html=1;fillColor=#1ba1e2;strokeColor=#006EAF;fontColor=#ffffff;" vertex="1" parent="1">
          <mxGeometry x="360" y="120" width="120" height="60" as="geometry" />
        </mxCell>
        <mxCell id="gRRdF8cXo2-2MMEj2vcQ-7" style="edgeStyle=orthogonalEdgeStyle;rounded=0;orthogonalLoop=1;jettySize=auto;html=1;exitX=0.5;exitY=1;exitDx=0;exitDy=0;entryX=0.5;entryY=0;entryDx=0;entryDy=0;" edge="1" parent="1" source="gRRdF8cXo2-2MMEj2vcQ-4" target="gRRdF8cXo2-2MMEj2vcQ-6">
          <mxGeometry relative="1" as="geometry" />
        </mxCell>
        <mxCell id="gRRdF8cXo2-2MMEj2vcQ-9" style="edgeStyle=orthogonalEdgeStyle;rounded=0;orthogonalLoop=1;jettySize=auto;html=1;exitX=1;exitY=0.5;exitDx=0;exitDy=0;entryX=0.5;entryY=0;entryDx=0;entryDy=0;" edge="1" parent="1" source="gRRdF8cXo2-2MMEj2vcQ-4" target="gRRdF8cXo2-2MMEj2vcQ-8">
          <mxGeometry relative="1" as="geometry" />
        </mxCell>
        <mxCell id="gRRdF8cXo2-2MMEj2vcQ-4" value="HRD" style="rounded=0;whiteSpace=wrap;html=1;fillColor=#1ba1e2;strokeColor=#006EAF;fontColor=#ffffff;" vertex="1" parent="1">
          <mxGeometry x="360" y="200" width="120" height="60" as="geometry" />
        </mxCell>
        <mxCell id="gRRdF8cXo2-2MMEj2vcQ-6" value="STAFF HRD" style="rounded=0;whiteSpace=wrap;html=1;fillColor=#1ba1e2;strokeColor=#006EAF;fontColor=#ffffff;" vertex="1" parent="1">
          <mxGeometry x="360" y="281" width="120" height="60" as="geometry" />
        </mxCell>
        <mxCell id="gRRdF8cXo2-2MMEj2vcQ-13" style="edgeStyle=orthogonalEdgeStyle;rounded=0;orthogonalLoop=1;jettySize=auto;html=1;exitX=0.5;exitY=1;exitDx=0;exitDy=0;entryX=0.5;entryY=0;entryDx=0;entryDy=0;" edge="1" parent="1" source="gRRdF8cXo2-2MMEj2vcQ-8" target="gRRdF8cXo2-2MMEj2vcQ-10">
          <mxGeometry relative="1" as="geometry" />
        </mxCell>
        <mxCell id="gRRdF8cXo2-2MMEj2vcQ-16" style="edgeStyle=orthogonalEdgeStyle;rounded=0;orthogonalLoop=1;jettySize=auto;html=1;exitX=0.5;exitY=1;exitDx=0;exitDy=0;entryX=0.485;entryY=-0.006;entryDx=0;entryDy=0;entryPerimeter=0;" edge="1" parent="1" source="gRRdF8cXo2-2MMEj2vcQ-8" target="gRRdF8cXo2-2MMEj2vcQ-14">
          <mxGeometry relative="1" as="geometry" />
        </mxCell>
        <mxCell id="gRRdF8cXo2-2MMEj2vcQ-8" value="KEPALA MARKETING" style="rounded=0;whiteSpace=wrap;html=1;fillColor=#1ba1e2;strokeColor=#006EAF;fontColor=#ffffff;" vertex="1" parent="1">
          <mxGeometry x="600" y="281" width="120" height="60" as="geometry" />
        </mxCell>
        <mxCell id="gRRdF8cXo2-2MMEj2vcQ-10" value="ASISTEN MARKETING 1" style="rounded=0;whiteSpace=wrap;html=1;fillColor=#1ba1e2;strokeColor=#006EAF;fontColor=#ffffff;" vertex="1" parent="1">
          <mxGeometry x="520" y="380" width="120" height="60" as="geometry" />
        </mxCell>
        <mxCell id="gRRdF8cXo2-2MMEj2vcQ-14" value="ASISTEN MARKETING 2" style="rounded=0;whiteSpace=wrap;html=1;fillColor=#1ba1e2;strokeColor=#006EAF;fontColor=#ffffff;" vertex="1" parent="1">
          <mxGeometry x="682" y="380" width="120" height="60" as="geometry" />
        </mxCell>
      </root>
    </mxGraphModel>
  </diagram>
</mxfile>
